# xmcd
#
# Track frame offsets:
#	150
#	7723
#	49923
#	66865
#	84440
#	102535
#	121483
#	138939
#	144314
#	159349
#	172849
#	201311
#	229970
#	232745
#	249594
#	265294
#	291100
#	315311
#	334626
#	353591
#
# Disc length: 4781 seconds
#
# Revision: 1
# Processed by: cddbd v1.5.2PL0 Copyright (c) Steve Scherf et al.
# Submitted via: audiograbber 1.83.01
#
DISCID=0e12ab14
DTITLE=CenZa - Les prophéties d'une plume
DYEAR=2017
DGENRE=Rap
TTITLE0=Verset I (Ouverture)
TTITLE1=Le manuscrit
TTITLE2=Exorcisme
TTITLE3=Il n'y aurait
TTITLE4=T'es vert
TTITLE5=Mauvaise plume
TTITLE6=À mes pieds
TTITLE7=Verset II (L'ange tombé)
TTITLE8=Près du mur
TTITLE9=J'détruis la rime
TTITLE10=Inconnu
TTITLE11=Faits divers
TTITLE12=Verset III (L'espoir)
TTITLE13=Souvenirs
TTITLE14=Fausse note
TTITLE15=Un trou noir dans un gant blanc
TTITLE16=Sur les p'tits Acte II
TTITLE17=Soldat de l'ombre
TTITLE18=Banlieue perdue
TTITLE19=Verset IV (Fermeture)
EXTD=
EXTT0=
EXTT1=
EXTT2=
EXTT3=
EXTT4=
EXTT5=
EXTT6=
EXTT7=
EXTT8=
EXTT9=
EXTT10=
EXTT11=
EXTT12=
EXTT13=
EXTT14=
EXTT15=
EXTT16=
EXTT17=
EXTT18=
EXTT19=
PLAYORDER=
